<?xml version="1.0" standalone="no"?><!DOCTYPE svg PUBLIC "-//W3C//DTD SVG 1.1//EN" "http://www.w3.org/Graphics/SVG/1.1/DTD/svg11.dtd"><svg t="1742379803606" class="icon" viewBox="0 0 1024 1024" version="1.1" xmlns="http://www.w3.org/2000/svg" p-id="3278" xmlns:xlink="http://www.w3.org/1999/xlink" width="200" height="200"><path d="M473.6 512a38.4 38.4 0 0 1 38.4 38.4v384a38.3488 38.3488 0 0 1-2.2016 12.8512h106.8032A38.3488 38.3488 0 0 1 614.4 934.4v-281.6a38.4 38.4 0 0 1 38.4-38.4h25.6a38.4 38.4 0 0 1 38.4 38.4v281.6a38.3488 38.3488 0 0 1-2.2016 12.8512l66.2016-0.0512a38.4 38.4 0 1 1 0 76.8H38.4a38.4 38.4 0 0 1 0-76.8l168.6016 0.0512A38.3488 38.3488 0 0 1 204.8 934.4v-281.6a38.4 38.4 0 0 1 38.4-38.4h25.6a38.4 38.4 0 0 1 38.4 38.4v281.6a38.3488 38.3488 0 0 1-2.2016 12.8512h106.8032A38.3488 38.3488 0 0 1 409.6 934.4v-384a38.4 38.4 0 0 1 38.4-38.4h25.6z" fill="#2468F1" p-id="3279"></path><path d="M0 0c559.616 0 1014.4256 448.9728 1023.8464 1006.3872L1024 1024h-204.8C819.2 576.9728 461.1072 213.504 16.128 204.9536L0 204.8V0zM0 1024v-256a256 256 0 0 1 256 256H0z" fill="#C4DAFF" fill-opacity=".402" p-id="3280"></path><path d="M0 358.4c362.3424 0 657.0496 289.536 665.3952 649.8816L665.6 1024H460.8a460.8 460.8 0 0 0-447.232-460.5952L0 563.2V358.4z" fill="#C4DAFF" fill-opacity=".402" p-id="3281"></path><path d="M473.6 462.7456a38.4 38.4 0 0 1 38.4 38.4v433.2544a38.3488 38.3488 0 0 1-2.2016 12.8h106.8032a38.3488 38.3488 0 0 1-2.2016-12.8v-281.6a38.4 38.4 0 0 1 38.4-38.4h25.6a38.4 38.4 0 0 1 38.4 38.4v281.6a38.3488 38.3488 0 0 1-2.2016 12.8h117.4016a38.4 38.4 0 1 1 0 76.8H89.6a38.4 38.4 0 0 1 0-76.8h117.4016A38.3488 38.3488 0 0 1 204.8 934.4v-281.6a38.4 38.4 0 0 1 38.4-38.4h25.6a38.4 38.4 0 0 1 38.4 38.4v281.6a38.3488 38.3488 0 0 1-2.2016 12.8h106.8032A38.3488 38.3488 0 0 1 409.6 934.4V501.1456a38.4 38.4 0 0 1 38.4-38.4h25.6z" fill="#2468F1" p-id="3282"></path></svg>