<svg xmlns="http://www.w3.org/2000/svg" width="200" height="200" viewBox="0 0 200 200" fill="none">
  <path d="M100 20C44.8 20 0 64.8 0 120C0 175.2 44.8 220 100 220C155.2 220 200 175.2 200 120C200 64.8 155.2 20 100 20ZM159.2 170.8C153.6 176.4 133.6 160 113.6 135.2C93.6 110.4 73.6 85.6 79.2 80C84.8 74.4 104.8 90.8 124.8 115.6C144.8 140.4 164.8 165.2 159.2 170.8Z" fill="white" fill-opacity="0.2"/>
  <rect x="40" y="110" width="20" height="70" rx="4" fill="#2979FF"/>
  <rect x="90" y="80" width="20" height="100" rx="4" fill="#2979FF"/>
  <rect x="140" y="60" width="20" height="120" rx="4" fill="#2979FF"/>
</svg> 